<svg width="91" height="92" viewBox="0 0 91 92" fill="none" xmlns="http://www.w3.org/2000/svg">
<g clip-path="url(#clip0_42_1984)">
<path opacity="0.2" d="M76.6596 17.2554H14.2483C13.4959 17.2554 12.7743 17.5543 12.2423 18.0863C11.7103 18.6183 11.4114 19.3399 11.4114 20.0923V65.4823C11.4114 66.2347 11.7103 66.9563 12.2423 67.4883C12.7743 68.0203 13.4959 68.3192 14.2483 68.3192H56.8014V58.3192C53.4359 55.3097 51.4038 51.0864 51.1521 46.5786C50.9004 42.0707 52.4497 37.6475 55.4592 34.282C58.4688 30.9164 62.692 28.8843 67.1999 28.6326C71.7077 28.3809 76.131 29.9302 79.4965 32.9398V20.0923C79.4965 19.3399 79.1976 18.6183 78.6656 18.0863C78.1336 17.5543 77.412 17.2554 76.6596 17.2554Z" fill="#1A2434"/>
<path d="M68.149 62.6456C77.5496 62.6456 85.1702 55.0249 85.1702 45.6243C85.1702 36.2237 77.5496 28.603 68.149 28.603C58.7484 28.603 51.1277 36.2237 51.1277 45.6243C51.1277 55.0249 58.7484 62.6456 68.149 62.6456Z" stroke="#1A2434" stroke-width="2.2695" stroke-linecap="round" stroke-linejoin="round"/>
<path d="M79.4964 58.3229V79.6669L68.1489 73.9931L56.8014 79.6669V58.3193" stroke="#1A2434" stroke-width="2.2695" stroke-linecap="round" stroke-linejoin="round"/>
<path d="M45.4539 68.3192H14.2483C13.4959 68.3192 12.7743 68.0203 12.2423 67.4883C11.7103 66.9563 11.4114 66.2347 11.4114 65.4823V20.0923C11.4114 19.3399 11.7103 18.6183 12.2423 18.0863C12.7743 17.5543 13.4959 17.2554 14.2483 17.2554H76.6596C77.412 17.2554 78.1336 17.5543 78.6656 18.0863C79.1976 18.6183 79.4965 19.3399 79.4965 20.0923" stroke="#1A2434" stroke-width="2.2695" stroke-linecap="round" stroke-linejoin="round"/>
<path d="M25.5958 48.4612H39.7802" stroke="#1A2434" stroke-width="2.2695" stroke-linecap="round" stroke-linejoin="round"/>
<path d="M25.5958 37.1135H39.7802" stroke="#1A2434" stroke-width="2.2695" stroke-linecap="round" stroke-linejoin="round"/>
</g>
<defs>
<clipPath id="clip0_42_1984">
<rect width="90.7801" height="90.7801" fill="white" transform="translate(0.0638428 0.234131)"/>
</clipPath>
</defs>
</svg>
