<svg width="91" height="91" viewBox="0 0 91 91" fill="none" xmlns="http://www.w3.org/2000/svg">
<g clip-path="url(#clip0_42_1968)">
<path opacity="0.2" d="M73.8228 31.2056H17.0852C16.3328 31.2056 15.6112 31.5045 15.0792 32.0365C14.5472 32.5685 14.2483 33.2901 14.2483 34.0424V73.7588C14.2483 74.5111 14.5472 75.2327 15.0792 75.7647C15.6112 76.2968 16.3328 76.5956 17.0852 76.5956H73.8228C74.5751 76.5956 75.2967 76.2968 75.8287 75.7647C76.3608 75.2327 76.6596 74.5111 76.6596 73.7588V34.0424C76.6596 33.2901 76.3608 32.5685 75.8287 32.0365C75.2967 31.5045 74.5751 31.2056 73.8228 31.2056ZM45.454 56.7375C44.0513 56.7375 42.6801 56.3215 41.5138 55.5422C40.3474 54.7629 39.4384 53.6553 38.9016 52.3594C38.3648 51.0634 38.2244 49.6374 38.498 48.2617C38.7717 46.8859 39.4472 45.6222 40.439 44.6303C41.4309 43.6385 42.6946 42.963 44.0703 42.6894C45.4461 42.4157 46.8721 42.5562 48.168 43.0929C49.464 43.6297 50.5716 44.5388 51.3509 45.7051C52.1302 46.8714 52.5462 48.2426 52.5462 49.6453C52.5462 51.5263 51.799 53.3302 50.4689 54.6602C49.1389 55.9903 47.3349 56.7375 45.454 56.7375Z" fill="#1A2434"/>
<path d="M73.8228 31.2056H17.0852C15.5184 31.2056 14.2483 32.4757 14.2483 34.0424V73.7588C14.2483 75.3255 15.5184 76.5956 17.0852 76.5956H73.8228C75.3895 76.5956 76.6596 75.3255 76.6596 73.7588V34.0424C76.6596 32.4757 75.3895 31.2056 73.8228 31.2056Z" stroke="#1A2434" stroke-width="2.2695" stroke-linecap="round" stroke-linejoin="round"/>
<path d="M31.2695 31.2057V19.8582C31.2695 16.0963 32.764 12.4884 35.424 9.82834C38.0841 7.16825 41.692 5.67383 45.4539 5.67383C52.3156 5.67383 58.3227 10.5462 59.6383 17.0213" stroke="#1A2434" stroke-width="2.2695" stroke-linecap="round" stroke-linejoin="round"/>
<path d="M45.454 56.7376C49.3709 56.7376 52.5462 53.5623 52.5462 49.6454C52.5462 45.7285 49.3709 42.5532 45.454 42.5532C41.5371 42.5532 38.3618 45.7285 38.3618 49.6454C38.3618 53.5623 41.5371 56.7376 45.454 56.7376Z" stroke="#1A2434" stroke-width="2.2695" stroke-linecap="round" stroke-linejoin="round"/>
<path d="M45.454 56.7375V65.2482" stroke="#1A2434" stroke-width="2.2695" stroke-linecap="round" stroke-linejoin="round"/>
</g>
<defs>
<clipPath id="clip0_42_1968">
<rect width="90.7801" height="90.7801" fill="white" transform="translate(0.0638428)"/>
</clipPath>
</defs>
</svg>
