<svg width="92" height="91" viewBox="0 0 92 91" fill="none" xmlns="http://www.w3.org/2000/svg">
<g clip-path="url(#clip0_42_1953)">
<path opacity="0.2" d="M74.3687 17.0212H17.6312C16.1264 17.0212 14.6832 17.619 13.6192 18.683C12.5552 19.7471 11.9574 21.1902 11.9574 22.695V62.4113C11.9574 63.9161 12.5552 65.3592 13.6192 66.4233C14.6832 67.4873 16.1264 68.0851 17.6312 68.0851H74.3687C75.8735 68.0851 77.3167 67.4873 78.3807 66.4233C79.4447 65.3592 80.0425 63.9161 80.0425 62.4113V22.695C80.0425 21.1902 79.4447 19.7471 78.3807 18.683C77.3167 17.619 75.8735 17.0212 74.3687 17.0212ZM40.3262 53.9007V31.2056L57.3475 42.5532L40.3262 53.9007Z" fill="#1A2434"/>
<path d="M17.6311 68.0852L74.3687 68.0852C77.5023 68.0852 80.0425 65.545 80.0425 62.4114V22.6951C80.0425 19.5616 77.5023 17.0214 74.3687 17.0214L17.6311 17.0214C14.4976 17.0214 11.9574 19.5616 11.9574 22.6951V62.4114C11.9574 65.545 14.4976 68.0852 17.6311 68.0852Z" stroke="#1A2434" stroke-width="2.2695" stroke-linecap="round" stroke-linejoin="round"/>
<path d="M57.3474 79.4326H34.6523" stroke="#1A2434" stroke-width="2.2695" stroke-linecap="round" stroke-linejoin="round"/>
<path d="M57.3474 42.5531L40.3262 31.2056V53.9006L57.3474 42.5531Z" stroke="#1A2434" stroke-width="2.2695" stroke-linecap="round" stroke-linejoin="round"/>
</g>
<defs>
<clipPath id="clip0_42_1953">
<rect width="90.7801" height="90.7801" fill="white" transform="translate(0.609863)"/>
</clipPath>
</defs>
</svg>
