<svg width="91" height="91" viewBox="0 0 91 91" fill="none" xmlns="http://www.w3.org/2000/svg">
<g clip-path="url(#clip0_42_1938)">
<path opacity="0.2" d="M45.4539 22.6951C50.1542 22.6951 53.9646 18.8848 53.9646 14.1845C53.9646 9.48417 50.1542 5.67383 45.4539 5.67383C40.7536 5.67383 36.9433 9.48417 36.9433 14.1845C36.9433 18.8848 40.7536 22.6951 45.4539 22.6951Z" fill="#1A2434"/>
<path opacity="0.2" d="M52.961 28.3689C54.1686 28.3691 55.3623 28.6263 56.4628 29.1233C57.5633 29.6204 58.5455 30.346 59.344 31.2519L75.4149 49.4717C75.8107 49.8676 76.1247 50.3375 76.3389 50.8547C76.5532 51.3718 76.6634 51.9261 76.6634 52.4859C76.6634 53.0457 76.5532 53.6 76.3389 54.1172C76.1247 54.6344 75.8107 55.1043 75.4149 55.5001C75.0191 55.8959 74.5492 56.2099 74.032 56.4241C73.5148 56.6384 72.9605 56.7486 72.4007 56.7486C71.8409 56.7486 71.2866 56.6384 70.7695 56.4241C70.2523 56.2099 69.7824 55.8959 69.3865 55.5001L56.8014 45.3902L64.9114 76.2164C65.3692 77.2364 65.4073 78.3956 65.0173 79.4434C64.6273 80.4912 63.8406 81.3435 62.8273 81.8159C61.814 82.2883 60.6554 82.3429 59.6022 81.968C58.5489 81.593 57.6855 80.8186 57.1986 79.8122L45.4539 59.5746L33.7092 79.8122C33.2224 80.8186 32.3589 81.593 31.3057 81.968C30.2524 82.3429 29.0938 82.2883 28.0805 81.8159C27.0672 81.3435 26.2805 80.4912 25.8905 79.4434C25.5005 78.3956 25.5386 77.2364 25.9965 76.2164L34.1064 45.3902L21.5142 55.493C20.7148 56.2924 19.6305 56.7415 18.5 56.7415C17.3695 56.7415 16.2852 56.2924 15.4858 55.493C14.6864 54.6936 14.2373 53.6094 14.2373 52.4788C14.2373 51.3483 14.6864 50.2641 15.4858 49.4646L31.5638 31.2519C32.3623 30.346 33.3445 29.6204 34.445 29.1233C35.5455 28.6263 36.7392 28.3691 37.9468 28.3689H52.961Z" fill="#1A2434"/>
<path d="M45.4539 22.6951C50.1542 22.6951 53.9646 18.8848 53.9646 14.1845C53.9646 9.48417 50.1542 5.67383 45.4539 5.67383C40.7536 5.67383 36.9433 9.48417 36.9433 14.1845C36.9433 18.8848 40.7536 22.6951 45.4539 22.6951Z" stroke="#1A2434" stroke-width="2.2695" stroke-linecap="round" stroke-linejoin="round"/>
<path d="M52.961 28.3689C54.1686 28.3691 55.3623 28.6263 56.4628 29.1233C57.5633 29.6204 58.5455 30.346 59.344 31.2519L75.4149 49.4717C75.8107 49.8676 76.1247 50.3375 76.3389 50.8547C76.5532 51.3718 76.6634 51.9261 76.6634 52.4859C76.6634 53.0457 76.5532 53.6 76.3389 54.1172C76.1247 54.6344 75.8107 55.1043 75.4149 55.5001C75.0191 55.8959 74.5492 56.2099 74.032 56.4241C73.5148 56.6384 72.9605 56.7486 72.4007 56.7486C71.8409 56.7486 71.2866 56.6384 70.7695 56.4241C70.2523 56.2099 69.7824 55.8959 69.3865 55.5001L56.8014 45.3902L64.9114 76.2164C65.3692 77.2364 65.4073 78.3956 65.0173 79.4434C64.6273 80.4912 63.8406 81.3435 62.8273 81.8159C61.814 82.2883 60.6554 82.3429 59.6022 81.968C58.5489 81.593 57.6855 80.8186 57.1986 79.8122L45.4539 59.5746L33.7092 79.8122C33.2224 80.8186 32.3589 81.593 31.3057 81.968C30.2524 82.3429 29.0938 82.2883 28.0805 81.8159C27.0672 81.3435 26.2805 80.4912 25.8905 79.4434C25.5005 78.3956 25.5386 77.2364 25.9965 76.2164L34.1064 45.3902L21.5142 55.493C20.7148 56.2924 19.6305 56.7415 18.5 56.7415C17.3695 56.7415 16.2852 56.2924 15.4858 55.493C14.6864 54.6936 14.2373 53.6094 14.2373 52.4788C14.2373 51.3483 14.6864 50.2641 15.4858 49.4646L31.5638 31.2519C32.3623 30.346 33.3445 29.6204 34.445 29.1233C35.5455 28.6263 36.7392 28.3691 37.9468 28.3689H52.961Z" stroke="#1A2434" stroke-width="2.2695" stroke-linecap="round" stroke-linejoin="round"/>
</g>
<defs>
<clipPath id="clip0_42_1938">
<rect width="90.7801" height="90.7801" fill="white" transform="translate(0.0638428)"/>
</clipPath>
</defs>
</svg>
